# Blender 4.5.3 LTS
# www.blender.org
mtllib gingerbread-woman.mtl
o gingerbread-woman
v -0.025148 0.053885 -0.284167
v -0.047492 0.053885 -0.284167
v -0.020520 0.053885 -0.295339
v -0.052120 0.053885 -0.295339
v -0.025148 0.053885 -0.306511
v -0.047492 0.053885 -0.306511
v -0.036320 0.053885 -0.311139
v 0.000000 0.053885 -0.179014
v -0.011172 0.053885 -0.183641
v 0.011172 0.053885 -0.183641
v 0.015800 0.053885 -0.194814
v -0.015800 0.053885 -0.194814
v 0.011172 0.053885 -0.205986
v -0.011172 0.053885 -0.205986
v 0.000000 0.053885 -0.210614
v 0.000000 0.053885 -0.245346
v -0.022159 0.053885 -0.254524
v 0.022159 0.053885 -0.254524
v 0.026748 0.053885 -0.265604
v 0.000000 0.053885 -0.260031
v -0.026748 0.053885 -0.265604
v 0.011775 0.053885 -0.264908
v 0.014213 0.053885 -0.270795
v -0.011775 0.053885 -0.264908
v -0.014213 0.053885 -0.270795
v 0.047492 0.053885 -0.284167
v 0.025148 0.053885 -0.284167
v 0.052120 0.053885 -0.295339
v 0.020520 0.053885 -0.295339
v 0.047492 0.053885 -0.306511
v 0.025148 0.053885 -0.306511
v 0.036320 0.053885 -0.311139
v 0.081070 -0.026331 -0.295339
v 0.059927 -0.026331 -0.244295
v 0.081070 0.043885 -0.295339
v 0.059927 0.043885 -0.244295
v 0.154036 0.043885 -0.221264
v 0.154036 -0.026331 -0.221264
v 0.067000 0.043885 -0.171014
v 0.067000 -0.026331 -0.171014
v -0.145956 -0.026331 -0.282634
v -0.145956 0.043885 -0.282634
v -0.166297 -0.026331 -0.267026
v -0.166297 0.043885 -0.267026
v -0.090728 -0.026331 -0.041029
v -0.090728 0.043885 -0.041029
v -0.087382 -0.026331 -0.015609
v -0.087382 0.043885 -0.015609
v -0.067040 0.043885 -0.000000
v -0.067040 -0.026331 -0.000000
v 0.087382 0.043885 -0.015609
v 0.087382 -0.026331 -0.015609
v 0.067040 0.043885 -0.000000
v 0.067040 -0.026331 0.000000
v 0.169644 -0.026331 -0.241605
v 0.169644 0.043885 -0.241605
v 0.090728 -0.026331 -0.041029
v 0.090728 0.043885 -0.041029
v -0.004488 -0.026331 -0.104014
v -0.026011 -0.026331 -0.023688
v -0.004488 0.043885 -0.104014
v -0.026011 0.043885 -0.023688
v -0.067000 -0.026331 -0.171014
v -0.067000 0.043885 -0.171014
v -0.067000 -0.026331 -0.129584
v -0.067000 0.043885 -0.129584
v 0.041620 0.043885 -0.003347
v 0.041620 -0.026331 -0.003347
v -0.081070 -0.026331 -0.295339
v -0.081070 0.043885 -0.295339
v -0.059927 -0.026331 -0.244295
v -0.059927 0.043885 -0.244295
v 0.067000 -0.026331 -0.129584
v 0.067000 0.043885 -0.129584
v 0.145956 -0.026331 -0.282634
v 0.145956 0.043885 -0.282634
v 0.120536 -0.026331 -0.279287
v 0.120536 0.043885 -0.279287
v 0.004488 0.043885 -0.104014
v 0.004488 -0.026331 -0.104014
v 0.057325 -0.026331 -0.352664
v 0.057325 0.043885 -0.352664
v -0.057325 -0.026331 -0.352664
v -0.057325 0.043885 -0.352664
v 0.026011 -0.026331 -0.023688
v 0.026011 0.043885 -0.023688
v -0.120536 -0.026331 -0.279287
v -0.120536 0.043885 -0.279287
v -0.154035 0.043885 -0.221264
v -0.154035 -0.026331 -0.221264
v 0.166297 -0.026331 -0.267026
v 0.166297 0.043885 -0.267026
v 0.000000 -0.026331 -0.376409
v 0.000000 0.043885 -0.376409
v -0.041620 0.043885 -0.003347
v -0.041620 -0.026331 -0.003347
v -0.169644 -0.026331 -0.241605
v -0.169644 0.043885 -0.241605
v -0.070026 -0.026331 -0.325671
v -0.060526 -0.026331 -0.342126
v -0.130077 -0.026331 -0.335660
v -0.145344 -0.026331 -0.347217
v -0.099202 -0.026331 -0.389137
v -0.116844 -0.026331 -0.396580
v -0.070026 0.024576 -0.325671
v -0.130077 0.024576 -0.335660
v -0.145344 0.024576 -0.347217
v -0.060526 0.024576 -0.342126
v -0.099202 0.024576 -0.389137
v -0.116844 0.024576 -0.396580
v 0.143648 -0.026331 -0.347641
v 0.128381 -0.026331 -0.336084
v 0.143648 0.024576 -0.347641
v 0.128381 0.024576 -0.336084
v 0.068330 -0.026331 -0.326095
v 0.058830 -0.026331 -0.342550
v 0.068330 0.024576 -0.326095
v 0.058830 0.024576 -0.342550
v 0.097506 -0.026331 -0.389561
v 0.115148 -0.026331 -0.397004
v 0.097506 0.024576 -0.389561
v 0.115148 0.024576 -0.397004
v 0.085171 -0.054831 -0.060698
v 0.112228 -0.028995 -0.060698
v 0.050192 -0.049853 -0.150299
v 0.084192 -0.006707 -0.150299
v -0.112228 -0.028995 -0.060698
v -0.085171 -0.054831 -0.060698
v -0.050192 -0.049853 -0.150299
v -0.084192 -0.006707 -0.150299
v -0.085171 0.068885 -0.060698
v -0.112228 0.043239 -0.060698
v -0.084192 0.024579 -0.150299
v -0.050192 0.067407 -0.150299
v 0.112228 0.043239 -0.060698
v 0.085171 0.068885 -0.060698
v 0.084192 0.024579 -0.150299
v 0.050192 0.067407 -0.150299
vn -0.0000 1.0000 -0.0000
vn 0.8546 0.4747 0.2107
vn 0.1164 -0.9843 -0.1328
vn 0.9029 -0.4299 -0.0000
vn 0.1164 0.9843 -0.1328
vn 0.4717 0.8386 0.2724
vn 0.5591 -0.5301 0.6375
vn 0.4115 0.6721 0.6156
vn 0.4717 -0.8386 0.2724
vn -0.7199 -0.4228 -0.5504
vn -0.2479 0.2871 -0.9253
vn -0.5260 -0.6575 -0.5395
vn -0.8363 -0.4233 0.3484
vn -0.8252 0.5623 -0.0541
vn -0.7355 -0.6728 0.0799
vn -0.4035 -0.3173 0.8582
vn -0.7928 0.4023 0.4577
vn 0.7227 -0.3875 0.5723
vn 0.2479 0.2871 0.9253
vn 0.5260 -0.6575 0.5395
vn 0.6333 0.6588 0.4062
vn 0.8195 0.5730 0.0062
vn 0.8241 -0.5639 -0.0540
vn 0.7715 0.4542 0.4454
vn 0.2666 0.6616 0.7009
vn 0.7103 -0.6728 0.2068
vn 0.1150 -0.7921 0.5994
vn 0.7420 0.5617 0.3659
vn -0.3388 0.3837 0.8591
vn -0.0853 -0.6600 0.7464
vn -0.2009 -0.5585 -0.8048
vn 0.2479 0.2871 -0.9253
vn -0.1858 -0.6575 -0.7302
vn 0.7767 0.4665 -0.4231
vn 0.6435 -0.4144 -0.6435
vn -0.8498 -0.4578 -0.2611
vn -0.6597 0.3601 -0.6597
vn -0.6804 -0.6597 -0.3192
vn -0.7044 0.6598 -0.2616
vn -0.2396 0.6779 0.6951
vn -0.7411 -0.5632 0.3655
vn -0.7108 0.6728 0.2051
vn -0.2689 0.5478 -0.7922
vn 0.8847 -0.4478 0.1295
vn 0.7459 0.6601 -0.0891
vn 0.2693 0.5462 -0.7932
vn 0.0940 -0.6729 -0.7338
vn 0.7296 -0.6791 -0.0805
vn 0.6982 0.7013 -0.1437
vn 0.3122 -0.4159 -0.8541
vn -0.0797 0.3173 0.9450
vn 0.4737 -0.3200 0.8205
vn 0.1446 0.6593 0.7378
vn -0.0000 0.2886 -0.9574
vn -0.6281 -0.7761 -0.0556
vn -0.5797 -0.7692 0.2689
vn -0.4717 -0.8386 0.2724
vn -0.3963 -0.6892 0.6065
vn -0.1164 -0.9843 -0.1328
vn -0.7515 -0.6588 -0.0355
vn -0.6141 0.7837 -0.0936
vn -0.4717 0.8386 0.2724
vn -0.3878 0.6727 0.6301
vn -0.5722 0.7814 0.2491
vn -0.1164 0.9843 -0.1328
vn -0.7400 0.6597 -0.1309
vn -0.1202 -0.6922 0.7116
vn 0.7983 -0.5986 -0.0660
vn 0.3421 -0.5986 0.7243
vn -0.3860 -0.8758 0.2897
vn 0.3420 0.5986 0.7244
vn -0.3408 0.5068 0.7918
vn -0.9757 0.0955 0.1974
vn -0.8711 -0.1439 -0.4695
vn -0.3181 -0.0382 -0.9473
vn 0.7983 0.5986 -0.0660
vn 0.3258 0.7840 -0.5285
vn 0.9101 0.0530 0.4111
vn 0.4523 -0.6680 0.5909
vn 0.9590 -0.2067 0.1940
vn 0.3402 0.5092 0.7905
vn -0.3420 0.5986 0.7243
vn -0.7983 -0.5986 -0.0660
vn -0.3420 -0.5986 0.7244
vn -0.7983 0.5986 -0.0660
vn -0.5967 -0.6676 -0.4453
vn 0.8416 -0.1852 -0.5073
vn 0.7111 0.6790 -0.1828
vn -0.5594 0.6678 -0.4911
vn 0.7718 -0.4537 -0.4456
vn 0.5809 -0.6679 -0.4652
vn 0.3291 -0.9231 -0.1989
vn 0.8669 -0.3714 -0.3326
vn 0.4272 -0.8781 -0.2155
vn 0.8937 -0.2812 -0.3496
vn -0.3291 -0.9231 -0.1989
vn -0.4272 -0.8781 -0.2155
vn -0.8669 -0.3714 -0.3326
vn -0.8937 -0.2812 -0.3496
vn -0.8944 0.3094 -0.3229
vn -0.8561 0.3826 -0.3475
vn -0.4477 0.8652 -0.2259
vn -0.3419 0.9279 -0.1488
vn 0.8944 0.3094 -0.3229
vn 0.4477 0.8652 -0.2259
vn 0.8561 0.3826 -0.3475
vn 0.3419 0.9279 -0.1488
vn -0.0000 -0.0000 1.0000
vn -0.0000 -0.0000 -1.0000
vt 0.093750 0.457649
vt 0.093750 0.445380
vt 0.093750 0.469918
vt 0.093750 0.475000
vt 0.093750 0.334989
vt 0.093750 0.329907
vt 0.093750 0.347258
vt 0.093750 0.359527
vt 0.093750 0.364609
vt 0.093750 0.412829
vt 0.093750 0.402749
vt 0.093750 0.424996
vt 0.093750 0.418876
vt 0.093750 0.424232
vt 0.093750 0.430697
vt 0.343750 0.431924
vt 0.343750 0.404803
vt 0.343750 0.365866
vt 0.343750 0.392566
vt 0.343750 0.416881
vt 0.343750 0.425174
vt 0.343750 0.283293
vt 0.343750 0.296800
vt 0.343750 0.275000
vt 0.343750 0.403374
vt 0.343750 0.330266
vt 0.343750 0.287586
vt 0.343750 0.276778
vt 0.343750 0.423396
vt 0.343750 0.462383
vt 0.343750 0.343853
vt 0.343750 0.475000
vt 0.218750 0.283293
vt 0.218750 0.276778
vt 0.218750 0.275000
vt 0.218750 0.287586
vt 0.218750 0.296800
vt 0.218750 0.330266
vt 0.218750 0.343853
vt 0.218750 0.365866
vt 0.218750 0.392566
vt 0.218750 0.403374
vt 0.218750 0.404803
vt 0.218750 0.416881
vt 0.218750 0.431924
vt 0.218750 0.462383
vt 0.218750 0.423396
vt 0.218750 0.425174
vt 0.218750 0.475000
vt 0.218750 0.339087
vt 0.218750 0.348205
vt 0.218750 0.325000
vt 0.218750 0.355385
vt 0.218750 0.425000
vt 0.218750 0.414503
vt 0.218750 0.311000
s 1
usemtl colormap.003
f 3/1/1 2/2/1 1/2/1
f 2/2/1 3/1/1 4/1/1
f 4/1/1 3/1/1 5/3/1
f 4/1/1 5/3/1 6/3/1
f 6/3/1 5/3/1 7/4/1
f 10/5/1 9/5/1 8/6/1
f 9/5/1 10/5/1 11/7/1
f 9/5/1 11/7/1 12/7/1
f 12/7/1 11/7/1 13/8/1
f 12/7/1 13/8/1 14/8/1
f 14/8/1 13/8/1 15/9/1
f 18/10/1 17/10/1 16/11/1
f 17/10/1 18/10/1 19/12/1
f 20/13/1 21/12/1 17/10/1
f 21/12/1 24/14/1 25/15/1
f 28/1/1 27/2/1 26/2/1
f 27/2/1 28/1/1 29/1/1
f 29/1/1 28/1/1 30/3/1
f 29/1/1 30/3/1 31/3/1
f 31/3/1 30/3/1 32/4/1
f 35/16/2 34/17/3 33/16/4
f 34/17/3 35/16/2 36/17/5
f 39/18/6 38/19/7 37/19/8
f 38/19/7 39/18/6 40/18/9
f 43/20/10 42/21/11 41/21/12
f 47/22/13 46/23/14 45/23/15
f 50/24/16 48/22/17 47/22/13
f 52/22/18 53/24/19 54/24/20
f 38/19/7 56/25/21 37/19/8
f 58/23/22 52/22/18 57/23/23
f 52/22/18 58/23/22 51/22/24
f 61/26/25 60/27/26 59/26/27
f 60/27/26 61/26/25 62/27/28
f 67/28/29 54/24/20 53/24/19
f 54/24/20 67/28/29 68/28/30
f 77/29/31 76/21/32 75/21/33
f 82/30/34 33/16/4 81/30/35
f 33/16/4 82/30/34 35/16/2
f 69/16/36 84/30/37 83/30/38
f 84/30/37 69/16/36 70/16/39
f 79/26/40 85/27/41 86/27/42
f 34/17/3 78/29/43 77/29/31
f 78/29/43 34/17/3 36/17/5
f 55/25/44 92/20/45 56/25/21
f 41/21/12 88/29/46 87/29/47
f 73/31/48 39/18/6 74/31/49
f 93/32/50 82/30/34 81/30/35
f 49/24/51 96/28/52 95/28/53
f 62/27/28 96/28/52 60/27/26
f 96/28/52 62/27/28 95/28/53
f 83/30/38 94/32/54 93/32/50
f 94/32/54 83/30/38 84/30/37
f 47/33/13 96/34/52 50/35/16
f 60/36/26 47/33/13 45/37/15
f 60/36/26 45/37/15 59/38/27
f 59/38/27 65/39/55 80/38/56
f 57/37/23 80/38/56 73/39/48
f 57/37/23 85/36/41 80/38/56
f 52/33/18 68/34/30 85/36/41
f 68/34/30 52/33/18 54/35/20
f 40/40/9 63/40/57 90/41/58
f 40/40/9 90/41/58 38/41/7
f 38/41/7 90/41/58 55/42/44
f 71/43/59 97/42/60 43/44/10
f 33/45/4 69/45/36 83/46/38
f 33/45/4 83/46/38 81/46/35
f 51/33/24 67/34/29 53/35/19
f 67/34/29 51/33/24 86/36/42
f 86/36/42 51/33/24 58/37/22
f 86/36/42 58/37/22 79/38/40
f 79/38/40 58/37/22 74/39/49
f 66/39/61 74/39/49 39/40/6
f 46/37/14 61/38/25 66/39/61
f 66/39/61 39/40/6 64/40/62
f 64/40/62 37/41/8 89/41/63
f 98/42/64 56/42/21 36/43/5
f 36/43/5 56/42/21 92/44/45
f 78/47/43 92/44/45 76/48/32
f 72/43/65 98/42/64 36/43/5
f 35/45/2 72/43/65 36/43/5
f 98/42/64 72/43/65 44/44/66
f 44/44/66 88/47/46 42/48/11
f 72/43/65 35/45/2 70/45/39
f 70/45/39 82/46/34 84/46/37
f 84/46/37 82/46/34 94/49/54
f 101/50/67 100/51/68 99/52/69
f 100/51/68 101/50/67 102/53/70
f 101/50/67 105/52/71 106/50/72
f 106/50/72 102/53/70 101/50/67
f 102/53/70 106/50/72 107/53/73
f 104/54/74 107/53/73 110/54/75
f 108/51/76 106/50/72 105/52/71
f 106/50/72 108/51/76 107/53/73
f 107/53/73 108/51/76 109/55/77
f 107/53/73 109/55/77 110/54/75
f 113/53/78 112/50/79 111/53/80
f 112/50/79 113/53/78 114/50/81
f 117/52/82 116/51/83 115/52/84
f 116/51/83 117/52/82 118/51/85
f 116/51/83 112/50/79 115/52/84
f 112/50/79 116/51/83 111/53/80
f 118/51/85 119/55/86 116/51/83
f 120/54/87 113/53/78 111/53/80
f 113/53/78 120/54/87 122/54/88
f 114/50/81 118/51/85 117/52/82
f 118/51/85 114/50/81 113/53/78
f 118/51/85 113/53/78 121/55/89
f 121/55/89 113/53/78 122/54/88
f 17/10/1 19/12/1 20/13/1
f 20/13/1 19/12/1 22/14/1
f 22/14/1 19/12/1 23/15/1
f 21/12/1 20/13/1 24/14/1
f 42/21/11 43/20/10 44/20/66
f 46/23/14 47/22/13 48/22/17
f 48/22/17 50/24/16 49/24/51
f 53/24/19 52/22/18 51/22/24
f 56/25/21 38/19/7 55/25/44
f 65/31/55 64/18/62 63/18/57
f 64/18/62 65/31/55 66/31/61
f 71/17/59 70/16/39 69/16/36
f 70/16/39 71/17/59 72/17/65
f 74/31/49 57/23/23 73/31/48
f 57/23/23 74/31/49 58/23/22
f 76/21/32 77/29/31 78/29/43
f 61/26/25 80/26/56 79/26/40
f 80/26/56 61/26/25 59/26/27
f 85/27/41 79/26/40 80/26/56
f 87/29/47 72/17/65 71/17/59
f 72/17/65 87/29/47 88/29/46
f 89/19/63 63/18/57 64/18/62
f 63/18/57 89/19/63 90/19/58
f 45/23/15 66/31/61 65/31/55
f 66/31/61 45/23/15 46/23/14
f 92/20/45 55/25/44 91/20/90
f 88/29/46 41/21/12 42/21/11
f 39/18/6 73/31/48 40/18/9
f 82/30/34 93/32/50 94/32/54
f 96/28/52 49/24/51 50/24/16
f 68/28/30 86/27/42 85/27/41
f 86/27/42 68/28/30 67/28/29
f 75/21/33 92/20/45 91/20/90
f 92/20/45 75/21/33 76/21/32
f 97/25/60 44/20/66 43/20/10
f 44/20/66 97/25/60 98/25/64
f 90/19/58 98/25/64 97/25/60
f 98/25/64 90/19/58 89/19/63
f 96/34/52 47/33/13 60/36/26
f 59/38/27 45/37/15 65/39/55
f 80/38/56 65/39/55 73/39/48
f 52/33/18 85/36/41 57/37/23
f 73/39/48 65/39/55 40/40/9
f 40/40/9 65/39/55 63/40/57
f 55/42/44 90/41/58 97/42/60
f 55/42/44 97/42/60 34/43/3
f 55/42/44 34/43/3 91/44/90
f 91/44/90 34/43/3 77/47/31
f 91/44/90 77/47/31 75/48/33
f 97/42/60 71/43/59 34/43/3
f 71/43/59 33/45/4 34/43/3
f 71/43/59 43/44/10 87/47/47
f 87/47/47 43/44/10 41/48/12
f 33/45/4 71/43/59 69/45/36
f 81/46/35 83/46/38 93/49/50
f 79/38/40 74/39/49 61/38/25
f 66/39/61 61/38/25 74/39/49
f 46/37/14 62/36/28 61/38/25
f 64/40/62 39/40/6 37/41/8
f 48/33/17 62/36/28 46/37/14
f 48/33/17 95/34/53 62/36/28
f 95/34/53 48/33/17 49/35/51
f 89/41/63 37/41/8 56/42/21
f 89/41/63 56/42/21 98/42/64
f 36/43/5 92/44/45 78/47/43
f 44/44/66 72/43/65 88/47/46
f 70/45/39 35/45/2 82/46/34
f 100/51/68 102/53/70 103/55/91
f 103/55/91 102/53/70 104/54/74
f 105/52/71 101/50/67 99/52/69
f 100/51/68 105/52/71 99/52/69
f 105/52/71 100/51/68 108/51/76
f 103/55/91 108/51/76 100/51/68
f 108/51/76 103/55/91 109/55/77
f 104/54/74 109/55/77 103/55/91
f 109/55/77 104/54/74 110/54/75
f 107/53/73 104/54/74 102/53/70
f 111/53/80 116/51/83 119/55/86
f 111/53/80 119/55/86 120/54/87
f 119/55/86 118/51/85 121/55/89
f 114/50/81 115/52/84 112/50/79
f 115/52/84 114/50/81 117/52/82
f 119/55/86 122/54/88 120/54/87
f 122/54/88 119/55/86 121/55/89
f 125/49/92 124/56/93 123/56/94
f 126/49/95 124/56/93 125/49/92
f 129/49/96 128/56/97 127/56/98
f 130/49/99 129/49/96 127/56/98
f 133/49/100 132/56/101 131/56/102
f 131/56/102 134/49/103 133/49/100
f 137/49/104 136/56/105 135/56/106
f 136/56/105 137/49/104 138/49/107
f 136/56/108 124/56/108 135/56/108
f 124/56/108 136/56/108 123/56/108
f 123/56/108 136/56/108 131/56/108
f 123/56/108 131/56/108 128/56/108
f 128/56/108 131/56/108 127/56/108
f 127/56/108 131/56/108 132/56/108
f 125/49/109 137/49/109 126/49/109
f 137/49/109 125/49/109 138/49/109
f 138/49/109 125/49/109 129/49/109
f 138/49/109 129/49/109 134/49/109
f 134/49/109 129/49/109 130/49/109
f 134/49/109 130/49/109 133/49/109
f 126/49/95 135/56/106 124/56/93
f 135/56/106 126/49/95 137/49/104
f 132/56/101 130/49/99 127/56/98
f 130/49/99 132/56/101 133/49/100
f 138/49/107 131/56/102 136/56/105
f 131/56/102 138/49/107 134/49/103
f 128/56/97 125/49/92 123/56/94
f 125/49/92 128/56/97 129/49/96
