# Blender 4.5.3 LTS
# www.blender.org
mtllib cabin-roof.mtl
o cabin-roof
v 0.141421 -0.700000 -0.741421
v 0.141421 -0.700000 -0.641421
v 0.141421 0.700000 -0.741421
v 0.141421 0.700000 -0.641421
v 0.782843 -0.700000 -0.100000
v 0.782843 -0.700000 0.000000
v 0.782843 0.700000 -0.100000
v 0.782843 0.700000 0.000000
v -0.179289 -0.700000 -1.062132
v -0.179289 0.700000 -1.062132
v -0.500000 -0.700000 -1.282843
v -0.500000 0.700000 -1.282843
v 0.462132 -0.700000 -0.420711
v 0.462132 -0.700000 -0.320711
v 0.462132 0.700000 -0.420711
v 0.462132 0.700000 -0.320711
v -0.179289 -0.700000 -0.962132
v -0.179289 0.700000 -0.962132
v -0.500000 -0.700000 -1.000000
v -0.500000 -0.500000 -1.000000
v -0.500000 0.500000 -1.000000
v -0.500000 0.700000 -1.000000
v 0.641421 0.700000 0.141421
v 0.641421 -0.700000 0.141421
vn 0.8785 0.2234 -0.4224
vn 0.4960 -0.8282 -0.2608
vn 0.8326 -0.3395 -0.4377
vn 0.4960 0.8282 -0.2608
vn 0.8955 0.1356 -0.4240
vn 0.7173 -0.6303 0.2971
vn 0.8589 -0.2415 -0.4516
vn 0.7173 0.6303 0.2971
vn -0.3880 -0.5521 -0.7380
vn 0.8651 0.2116 -0.4548
vn 0.4624 -0.6612 -0.5907
vn -0.3880 0.5521 -0.7380
vn 0.8776 0.2272 -0.4222
vn 0.8312 -0.3436 -0.4370
vn -0.9239 -0.0000 0.3827
vn -0.7173 -0.6302 0.2971
vn -0.0000 0.5774 0.8165
vn -0.0000 -0.5774 0.8165
vn -0.7173 0.6302 0.2971
vt 0.718750 0.423284
vt 0.718750 0.403284
vt 0.718750 0.295000
vt 0.718750 0.275000
vt 0.718750 0.475000
vt 0.718750 0.359142
vt 0.718750 0.339142
vt 0.718750 0.467426
vt 0.343750 0.475000
vt 0.343750 0.275000
vt 0.343750 0.339142
vt 0.343750 0.295000
vt 0.343750 0.403284
vt 0.343750 0.423284
vt 0.343750 0.467426
vt 0.343750 0.359142
s 1
usemtl colormap.004
f 3/1/1 2/2/2 1/1/3
f 2/2/2 3/1/1 4/2/4
f 7/3/5 6/4/6 5/3/7
f 6/4/6 7/3/5 8/4/8
f 11/5/9 10/5/10 9/5/11
f 10/5/10 11/5/9 12/5/12
f 15/6/13 14/7/2 13/6/14
f 14/7/2 15/6/13 16/7/4
f 10/5/10 17/8/2 9/5/11
f 17/8/2 10/5/10 18/8/4
f 17/8/2 3/1/1 1/1/3
f 3/1/1 17/8/2 18/8/4
f 14/7/2 7/3/5 5/3/7
f 7/3/5 14/7/2 16/7/4
f 20/9/15 11/9/9 19/9/16
f 11/9/9 20/9/15 12/9/12
f 6/10/6 23/10/17 24/10/18
f 20/9/15 23/10/17 21/9/15
f 6/10/6 19/9/16 14/11/2
f 6/10/6 14/11/2 5/12/7
f 2/13/2 19/9/16 1/14/3
f 1/14/3 19/9/16 17/15/2
f 9/9/11 19/9/16 11/9/9
f 22/9/19 16/11/4 15/16/13
f 22/9/19 15/16/13 4/13/4
f 22/9/19 3/14/1 18/15/4
f 22/9/19 18/15/4 10/9/10
f 2/2/2 15/6/13 13/6/14
f 15/6/13 2/2/2 4/2/4
f 12/9/12 20/9/15 21/9/15
f 12/9/12 21/9/15 22/9/19
f 23/10/17 6/10/6 8/10/8
f 23/10/17 19/9/16 24/10/18
f 19/9/16 23/10/17 20/9/15
f 21/9/15 23/10/17 22/9/19
f 19/9/16 6/10/6 24/10/18
f 14/11/2 19/9/16 13/16/14
f 13/16/14 19/9/16 2/13/2
f 17/15/2 19/9/16 9/9/11
f 8/10/8 22/9/19 23/10/17
f 22/9/19 8/10/8 16/11/4
f 16/11/4 8/10/8 7/12/5
f 22/9/19 4/13/4 3/14/1
f 22/9/19 10/9/10 12/9/12
